<svg width="256" height="293" xmlns="http://www.w3.org/2000/svg" preserveAspectRatio="xMidYMid"><path d="M252.08 70.21L131.9 1.04a7.83 7.83 0 00-7.8 0L3.92 70.21A7.82 7.82 0 000 77v138.3c0 2.8 1.5 5.38 3.92 6.78l120.18 69.17a7.83 7.83 0 007.8 0l120.18-69.17a7.82 7.82 0 003.92-6.78V77c0-2.8-1.5-5.39-3.92-6.79zM118.84 45.38c0 .47-.25.9-.65 1.13l-43 24.77a1.3 1.3 0 000 2.26l43 24.74c.4.24.65.67.65 1.13v17.98c0 1-1.09 1.63-1.95 1.13L38.75 73.55a1.3 1.3 0 010-2.26l78.13-45.02a1.3 1.3 0 011.96 1.13v17.98zm98.4 28.17l-78.2 45a1.3 1.3 0 01-1.94-1.12V99.45c0-.46.25-.9.65-1.13l43.05-24.78a1.3 1.3 0 000-2.26l-43.05-24.8a1.3 1.3 0 01-.65-1.13V27.37c0-1 1.08-1.63 1.95-1.13l78.2 45.05c.86.5.86 1.76 0 2.26z" fill="#405261"/></svg>