<svg height="512pt" viewBox="-27 0 512 512" width="512pt" xmlns="http://www.w3.org/2000/svg"><path d="M0 0l44.266 461.5 186.48 50.5 183.844-50.5L458.855 0zm0 0" fill="#fd982c"/><path d="M230.746 0v512l183.844-50.5L458.855 0zm0 0" fill="#fa502e"/><path d="M367.172 159.379l-195.86-.004 3.278 35.828h191.652l-15.488 200.192-120.172 34.953-128.984-40.118v-81.183h80.125v24.18l48.875 15.101 46.308-15.113 3.371-59.942H102.84L82.809 82.31h284.363zm0 0" fill="#fff"/><g fill="#deecf1"><path d="M230.746 82.309h136.426v77.07H230.746zm0 0M280.277 273.273l-3.37 59.942-46.16 15.066v82.02l120.007-34.906 15.488-200.192H230.746v78.07zm0 0"/></g></svg>