<svg xmlns="http://www.w3.org/2000/svg" width="48" height="48"><path fill="#ffd600" d="M6 42V6h36v36H6z"/><path fill="#000001" d="M29.54 32.95c.69 1.12 1.44 2.2 3.04 2.2 1.33 0 2.04-.67 2.04-1.59 0-1.1-.73-1.49-2.2-2.13l-.81-.34c-2.33-1-3.88-2.23-3.88-4.84 0-2.41 1.85-4.25 4.73-4.25 2.05 0 3.53.71 4.6 2.57l-2.52 1.61c-.56-.99-1.15-1.38-2.08-1.38-.95 0-1.55.6-1.55 1.38 0 .97.6 1.36 1.99 1.95l.8.35c2.75 1.16 4.3 2.36 4.3 5.04 0 2.9-2.28 4.48-5.35 4.48-3 0-4.7-1.5-5.65-3.37l2.54-1.68zm-11.59.08c.5.9 1.28 1.6 2.38 1.6 1.06 0 1.67-.42 1.67-2.04V22h3.33v11.1c0 3.37-1.95 4.9-4.8 4.9a5.85 5.85 0 01-5.2-3.37l2.62-1.6z"/></svg>